<svg xmlns="http://www.w3.org/2000/svg" style="display: none;"><symbol id="linkedin" viewBox="0 0 512 512"><title>linkedin</title><g> <g> <rect y="160" width="114.496" height="352"/> </g> </g><g> <g> <path d="M426.368,164.128c-1.216-0.384-2.368-0.8-3.648-1.152c-1.536-0.352-3.072-0.64-4.64-0.896 c-6.08-1.216-12.736-2.08-20.544-2.08c-66.752,0-109.088,48.544-123.04,67.296V160H160v352h114.496V320 c0,0,86.528-120.512,123.04-32c0,79.008,0,224,0,224H512V274.464C512,221.28,475.552,176.96,426.368,164.128z"/> </g> </g><g> <g> <circle cx="56" cy="56" r="56"/> </g> </g></symbol><symbol id="instagram" viewBox="0 0 512.00096 512.00096"><title>instagram</title><path d="m373.40625 0h-234.8125c-76.421875 0-138.59375 62.171875-138.59375 138.59375v234.816406c0 76.417969 62.171875 138.589844 138.59375 138.589844h234.816406c76.417969 0 138.589844-62.171875 138.589844-138.589844v-234.816406c0-76.421875-62.171875-138.59375-138.59375-138.59375zm-117.40625 395.996094c-77.195312 0-139.996094-62.800782-139.996094-139.996094s62.800782-139.996094 139.996094-139.996094 139.996094 62.800782 139.996094 139.996094-62.800782 139.996094-139.996094 139.996094zm143.34375-246.976563c-22.8125 0-41.367188-18.554687-41.367188-41.367187s18.554688-41.371094 41.367188-41.371094 41.371094 18.558594 41.371094 41.371094-18.558594 41.367187-41.371094 41.367187zm0 0"/><path d="m256 146.019531c-60.640625 0-109.980469 49.335938-109.980469 109.980469 0 60.640625 49.339844 109.980469 109.980469 109.980469 60.644531 0 109.980469-49.339844 109.980469-109.980469 0-60.644531-49.335938-109.980469-109.980469-109.980469zm0 0"/><path d="m399.34375 96.300781c-6.257812 0-11.351562 5.09375-11.351562 11.351563 0 6.257812 5.09375 11.351562 11.351562 11.351562 6.261719 0 11.355469-5.089844 11.355469-11.351562 0-6.261719-5.09375-11.351563-11.355469-11.351563zm0 0"/></symbol><symbol id="facebook" viewBox="0 0 512 512"><title>facebook</title><path d="M448,0H64C28.704,0,0,28.704,0,64v384c0,35.296,28.704,64,64,64h192V336h-64v-80h64v-64c0-53.024,42.976-96,96-96h64v80 h-32c-17.664,0-32-1.664-32,16v64h80l-32,80h-48v176h96c35.296,0,64-28.704,64-64V64C512,28.704,483.296,0,448,0z"/></symbol><symbol id="tumblr" viewBox="0 0 24 24"><title>tumblr</title><path d="m19 22.594-1.175-3.425c-.458.214-1.327.399-1.968.419h-.091c-1.863 0-2.228-1.37-2.244-2.371v-7.47h4.901v-3.633h-4.883v-6.114h-3.575c-.059 0-.162.051-.176.179-.202 1.873-1.098 5.156-4.789 6.469v3.099h2.456v7.842c0 2.655 1.97 6.411 7.148 6.411l-.011-.002h.181c1.786-.03 3.783-.768 4.226-1.404z"/></symbol><symbol id="9gag" viewBox="0 0 24 24"><title>9gag</title><path d="m1.535 6.002c3.494-2.004 6.988-4.005 10.483-6.002 3.493 1.998 6.992 3.99 10.481 5.996-.004 4.007-.006 8.014.002 12.021-3.487 2.009-6.99 3.987-10.484 5.984-3.504-2.014-7.025-3.995-10.517-6.026 1.393-.79 2.785-1.582 4.181-2.368 2.111 1.212 4.229 2.417 6.335 3.637 2.102-1.229 4.232-2.411 6.326-3.652-.019-1.604-.002-3.206-.009-4.81-2.104 1.215-4.21 2.428-6.317 3.638-3.496-1.98-6.982-3.982-10.479-5.966 0-.818.002-1.636-.002-2.452zm6.208 1.203c1.418.829 2.851 1.636 4.273 2.458 1.432-.818 2.862-1.637 4.296-2.454-1.435-.812-2.863-1.636-4.296-2.451-1.425.814-2.845 1.64-4.273 2.447z"/></symbol></svg>